<svg preserveAspectRatio="none" width="100%" height="100%" overflow="visible" style="display: block;" viewBox="0 0 16 16" fill="none" xmlns="http://www.w3.org/2000/svg">
<path id="Union" fill-rule="evenodd" clip-rule="evenodd" d="M8 0C10.4853 0 12.5 2.01472 12.5 4.5C12.5 5.72078 12.0138 6.82798 11.2246 7.63867C13.9724 8.86885 15.1788 11.6525 15.6943 14C15.8543 14.7284 15.9477 15.4149 16 16H0C0.0522687 15.4149 0.145705 14.7284 0.305664 14C0.821158 11.6525 2.02757 8.86885 4.77539 7.63867C3.98617 6.82798 3.5 5.72078 3.5 4.5C3.5 2.01472 5.51472 0 8 0ZM8 9C5.61878 9 4.28903 10.0516 3.43066 11.4102C2.93082 12.2013 2.58984 13.1101 2.36133 14H13.6387C13.4102 13.1101 13.0692 12.2013 12.5693 11.4102C11.711 10.0516 10.3812 9 8 9ZM8 2C6.61929 2 5.5 3.11929 5.5 4.5C5.5 5.88071 6.61929 7 8 7C9.38071 7 10.5 5.88071 10.5 4.5C10.5 3.11929 9.38071 2 8 2Z" fill="var(--fill-0, #63687A)"/>
</svg>
