<svg preserveAspectRatio="none" width="100%" height="100%" overflow="visible" style="display: block;" viewBox="0 0 18 20" fill="none" xmlns="http://www.w3.org/2000/svg">
<g id="Union">
<path fill-rule="evenodd" clip-rule="evenodd" d="M13.5 9C15.9853 9 18 11.0147 18 13.5C18 15.9853 15.9853 18 13.5 18H5.8291C5.41725 19.1652 4.3062 20 3 20C1.34315 20 0 18.6569 0 17C0 15.3431 1.34315 14 3 14C4.3062 14 5.41725 14.8348 5.8291 16H13.5C14.8807 16 16 14.8807 16 13.5C16 12.1193 14.8807 11 13.5 11H13V9H13.5ZM3 16C2.44772 16 2 16.4477 2 17C2 17.5523 2.44772 18 3 18C3.55228 18 4 17.5523 4 17C4 16.4477 3.55228 16 3 16Z" fill="var(--fill-0, #63687A)"/>
<path fill-rule="evenodd" clip-rule="evenodd" d="M15 0C16.6569 0 18 1.34315 18 3C18 4.65685 16.6569 6 15 6C13.6938 6 12.5828 5.16516 12.1709 4H4.5C3.11929 4 2 5.11929 2 6.5C2 7.88071 3.11929 9 4.5 9H7.58594L6.29297 7.70703L7.70703 6.29297L11.4141 10L7.70703 13.707L6.29297 12.293L7.58594 11H4.5C2.01472 11 0 8.98528 0 6.5C0 4.01472 2.01472 2 4.5 2H12.1709C12.5828 0.834839 13.6938 0 15 0ZM15 2C14.4477 2 14 2.44772 14 3C14 3.55228 14.4477 4 15 4C15.5523 4 16 3.55228 16 3C16 2.44772 15.5523 2 15 2Z" fill="var(--fill-0, #63687A)"/>
</g>
</svg>
